<?xml version="1.0" encoding="utf-8"?>
<?xml-stylesheet type="text/xsl" href="rss1.xsl"?>
<rss version="2.0" xmlns:atom="http://www.w3.org/2005/Atom" xmlns:content="http://purl.org/rss/1.0/modules/content/" xmlns:dc="http://purl.org/dc/elements/1.1/" xmlns:media="http://search.yahoo.com/mrss/">
<channel>
 <title>Getty</title>
 <link>http://www.gettyimg.com/</link>
 <atom:link href="http://www.gettyimg.com/" rel="self" type="application/rss+xml" />

 
                <item>
                <title><![CDATA[【UPSCALED】Bachelors Of Science - Before You Go (feat. Dylan Germick &amp; Audio Angel) [4K AI Upscale / PCM]]]></title>
                <link><![CDATA[https://sharemania.us/threads/bachelors-of-science-before-you-go-feat-dylan-germick-audio-angel-4k-ai-upscale-pcm.222123/]]></link>
                <description><![CDATA[<article>
<blockquote class="messageText SelectQuoteContainer ugc baseHtml">
<b><img src="https://images2.imgbox.com/54/d6/9L4446Q2_o.jpg" class="bbCodeImage LbImage" alt="[​IMG]" data-url="https://images2.imgbox.com/54/d6/9L4446Q2_o.jpg" style=""> <br>
<br>
Genre: <span style="color: #0059b3">Electronic</span><br>
Style: <span style="color: #0059b3">Drum n Bass</span><br>
Year: <span style="color: #0059b3">2015</span><br>
Video Source: <span style="color: #0059b3">Vimeo</span><br>
Audio Source: <span style="color: #0059b3">Qobuz</span></b><br>
<br>
"<b>Before You Go</b>" is a song by San Francisco based Drum &amp; Bass trio Bachelors of Science, featuring Dylan Germick &amp; Audio Angel. It's the first track from their fifth album "The Space Between", released in 2015. Wasting no time, ‘Before You Go’ sets the vibe with a cascade of crisp breaks underlying optimistic piano melodies. Lush bass tones and Germick’s soulful vocal stylings quickly take control, cutting through the mix and hanging together in perfect balance. It’s the kind of singular songwriting abilities drum &amp; bass fans have come to expect from the trio.<br>
<br>
Bachelors of Science is the stage name of Phil "Rene" Collis, Chris Doe and Lukeino Argilla. They met in California and formed a successful act, quickly becoming one of the top drum and bass producers in the electronic music scene. Focusing primarily on the subgenre of liquid funk, Bachelors of Science have released multiple albums and singles to critical acclaim, gaining airplay from DJs such as Brian Gee, Bailey, LTJ Bukem, Grooverider, Annie Mac, High Contrast, Doc Scott, Flight, Alix Perez, DJ Lee, Redeyes, Makoto, State of Mind, JuJu, BigBud and L Double.<br>
<br>
Their track, "Bachelors of Science – Strings Track (Apex Remix)" has been awarded "Best Drum &amp; Bass Track" at the 2009 beatport Music Awards.<br>
<br>
Having released music on labels like Spearhead, Dirtybird, Fokuz, Horizons and Intrigue, in 2012 they launched their record label CODE Recordings as an outlet for their music as well as standout productions from some of the top artists in the DnB scene.<br>
<br>
<b>Release Info</b><br>
The video track is upscaled to 4K with Topaz Video AI and encoded to HEVC 10-bit.<br>
The PCM track is lossless (Qobuz, CD Quality), synced with Adobe Audition.<br>
<br>
<div class="ToggleTriggerAnchor bbCodeSpoilerContainer">
<button type="button" class="button bbCodeSpoilerButton ToggleTrigger Tooltip JsOnly" data-target="> .SpoilerTarget"><span>Spoiler: <span class="SpoilerTitle">Media Info</span></span></button>
<div class="SpoilerTarget bbCodeSpoilerText">
<div class="bbCodeBlock bbCodeCode">
<div class="type">Code:</div>
<pre>General
Unique ID                      : 250054014854881857078085667802497507181 (0xBC1EA6C8337D0E600B11560D5FA55F6D)
Complete name                  : Bachelors Of Science - Before You Go (feat. Dylan Germick &amp; Audio Angel).mkv
Format                         : Matroska
Format version                 : Version 4 / Version 2
File size                      : 728 MiB
Duration                       : 5 min 23 s
Overall bit rate               : 18.9 Mb/s
Frame rate                     : 24.000 FPS
Encoded date                   : 2023-06-05 21:56:25 UTC
Writing application            : mkvmerge v76.0 ('Celebration') 64-bit
Writing library                : libebml v1.4.4 + libmatroska v1.7.1

Video
ID                             : 1
Format                         : HEVC
Format/Info                    : High Efficiency Video Coding
Format profile                 : Main 10@L5@Main
Codec ID                       : V_MPEGH/ISO/HEVC
Duration                       : 5 min 23 s
Bit rate                       : 17.3 Mb/s
Width                          : 3 840 pixels
Height                         : 2 160 pixels
Display aspect ratio           : 16:9
Frame rate mode                : Constant
Frame rate                     : 24.000 FPS
Color space                    : YUV
Chroma subsampling             : 4:2:0
Bit depth                      : 10 bits
Bits/(Pixel*Frame)             : 0.087
Stream size                    : 667 MiB (92%)
Language                       : English
Default                        : Yes
Forced                         : No
Color range                    : Limited
Color primaries                : BT.709
Transfer characteristics       : BT.709
Matrix coefficients            : BT.709

Audio #1
ID                             : 2
Format                         : PCM
Format settings                : Little / Signed
Codec ID                       : A_PCM/INT/LIT
Duration                       : 5 min 23 s
Bit rate mode                  : Constant
Bit rate                       : 1 411.2 kb/s
Channel(s)                     : 2 channels
Sampling rate                  : 44.1 kHz
Frame rate                     : 25.003 FPS (1764 SPF)
Bit depth                      : 16 bits
Delay relative to video        : -42 ms
Stream size                    : 54.4 MiB (7%)
Language                       : English
Default                        : Yes
Forced                         : No

Audio #2
ID                             : 3
Format                         : AAC LC
Format/Info                    : Advanced Audio Codec Low Complexity
Codec ID                       : A_AAC-2
Duration                       : 5 min 23 s
Bit rate                       : 160 kb/s
Channel(s)                     : 2 channels
Channel layout                 : L R
Sampling rate                  : 48.0 kHz
Frame rate                     : 46.875 FPS (1024 SPF)
Compression mode               : Lossy
Delay relative to video        : -42 ms
Stream size                    : 6.16 MiB (1%)
Language                       : English
Default                        : No
Forced                         : No
</pre>
</div></div>
</div><br>
<div class="bbCodeBlock bbCodeVfcHH HiddenContent">
<div class="attribution type">Hidden Content:</div>
<blockquote>You must reply before you can see the hidden data contained here.</blockquote>
</div>
<div class="messageTextEndMarker">&nbsp;</div>
</blockquote>
</article>]]></description>
                <author><![CDATA[ADHDerby]]></author>
                </item>

                </channel></rss>